<svg xmlns="http://www.w3.org/2000/svg" width="93" height="96" fill="none"><g filter="url(#a)"><ellipse cx="46.25" cy="44" fill="#5BE2FF" rx="42.25" ry="44"/></g><g filter="url(#b)"><mask id="c" width="71" height="72" x="11" y="8" fill="#000" maskUnits="userSpaceOnUse"><path fill="#fff" d="M11 8h71v72H11z"/><path fill-rule="evenodd" d="m53.694 9.836 1.94.484-1.693 6.792L52 16.628l1.694-6.792Zm7.943 2.753 1.766.939-3.286 6.18-1.766-.939 3.286-6.18Zm7.085 4.988 1.415 1.414-4.95 4.95-1.414-1.415 4.95-4.95Zm5.635 5.678 1.119 1.658-5.803 3.914-1.119-1.658 5.803-3.914Zm4.062 7.36.684 1.88-6.578 2.394-.684-1.88 6.578-2.393Zm1.928 8.448.104 1.997-6.99.367-.105-1.998 6.99-.366ZM53.694 78.427l1.94-.484-1.693-6.792-1.941.484 1.694 6.792Zm7.943-2.753 1.766-.939-3.286-6.18-1.766.939 3.286 6.18Zm7.085-4.988 1.415-1.414-4.95-4.95-1.414 1.415 4.95 4.95Zm5.635-5.678 1.119-1.658-5.803-3.914-1.119 1.658 5.803 3.914Zm4.062-7.36.684-1.88-6.578-2.394-.684 1.88 6.578 2.394Zm1.928-8.448.104-1.997-6.99-.367-.105 1.998 6.99.366ZM38.757 9.836l-1.94.484 1.694 6.792 1.94-.484-1.693-6.792ZM47.094 9h-2v7h2V9Zm0 63h-2v7h2v-7Zm-16.28-59.411-1.766.939 3.286 6.18 1.766-.939-3.286-6.18Zm-7.085 4.988-1.414 1.414 4.95 4.95 1.414-1.415-4.95-4.95Zm-5.635 5.678-1.119 1.658 5.804 3.914 1.118-1.658-5.803-3.914Zm-4.062 7.36-.684 1.88 6.578 2.394.684-1.88-6.578-2.393Zm-1.927 8.448L12 41.06l6.99.367.105-1.998-6.99-.366Zm26.653 39.364-1.94-.484 1.693-6.792 1.94.484-1.693 6.792Zm-7.944-2.753-1.766-.939 3.286-6.18 1.766.939-3.286 6.18Zm-7.085-4.988-1.414-1.414 4.95-4.95 1.414 1.415-4.95 4.95Zm-5.635-5.678-1.119-1.658 5.804-3.914 1.118 1.658-5.803 3.914Zm-4.062-7.36-.684-1.88 6.578-2.394.684 1.88-6.578 2.394ZM12.105 49.2 12 47.203l6.99-.367.105 1.998-6.99.366Z" clip-rule="evenodd"/></mask><path fill="#fff" fill-rule="evenodd" d="m53.694 9.836 1.94.484-1.693 6.792L52 16.628l1.694-6.792Zm7.943 2.753 1.766.939-3.286 6.18-1.766-.939 3.286-6.18Zm7.085 4.988 1.415 1.414-4.95 4.95-1.414-1.415 4.95-4.95Zm5.635 5.678 1.119 1.658-5.803 3.914-1.119-1.658 5.803-3.914Zm4.062 7.36.684 1.88-6.578 2.394-.684-1.88 6.578-2.393Zm1.928 8.448.104 1.997-6.99.367-.105-1.998 6.99-.366ZM53.694 78.427l1.94-.484-1.693-6.792-1.941.484 1.694 6.792Zm7.943-2.753 1.766-.939-3.286-6.18-1.766.939 3.286 6.18Zm7.085-4.988 1.415-1.414-4.95-4.95-1.414 1.415 4.95 4.95Zm5.635-5.678 1.119-1.658-5.803-3.914-1.119 1.658 5.803 3.914Zm4.062-7.36.684-1.88-6.578-2.394-.684 1.88 6.578 2.394Zm1.928-8.448.104-1.997-6.99-.367-.105 1.998 6.99.366ZM38.757 9.836l-1.94.484 1.694 6.792 1.94-.484-1.693-6.792ZM47.094 9h-2v7h2V9Zm0 63h-2v7h2v-7Zm-16.28-59.411-1.766.939 3.286 6.18 1.766-.939-3.286-6.18Zm-7.085 4.988-1.414 1.414 4.95 4.95 1.414-1.415-4.95-4.95Zm-5.635 5.678-1.119 1.658 5.804 3.914 1.118-1.658-5.803-3.914Zm-4.062 7.36-.684 1.88 6.578 2.394.684-1.88-6.578-2.393Zm-1.927 8.448L12 41.06l6.99.367.105-1.998-6.99-.366Zm26.653 39.364-1.94-.484 1.693-6.792 1.94.484-1.693 6.792Zm-7.944-2.753-1.766-.939 3.286-6.18 1.766.939-3.286 6.18Zm-7.085-4.988-1.414-1.414 4.95-4.95 1.414 1.415-4.95 4.95Zm-5.635-5.678-1.119-1.658 5.804-3.914 1.118 1.658-5.803 3.914Zm-4.062-7.36-.684-1.88 6.578-2.394.684 1.88-6.578 2.394ZM12.105 49.2 12 47.203l6.99-.367.105 1.998-6.99.366Z" clip-rule="evenodd"/><path stroke="#3A3A3A" stroke-opacity=".1" stroke-width="1.2" d="m53.694 9.836 1.94.484-1.693 6.792L52 16.628l1.694-6.792Zm7.943 2.753 1.766.939-3.286 6.18-1.766-.939 3.286-6.18Zm7.085 4.988 1.415 1.414-4.95 4.95-1.414-1.415 4.95-4.95Zm5.635 5.678 1.119 1.658-5.803 3.914-1.119-1.658 5.803-3.914Zm4.062 7.36.684 1.88-6.578 2.394-.684-1.88 6.578-2.393Zm1.928 8.448.104 1.997-6.99.367-.105-1.998 6.99-.366ZM53.694 78.427l1.94-.484-1.693-6.792-1.941.484 1.694 6.792Zm7.943-2.753 1.766-.939-3.286-6.18-1.766.939 3.286 6.18Zm7.085-4.988 1.415-1.414-4.95-4.95-1.414 1.415 4.95 4.95Zm5.635-5.678 1.119-1.658-5.803-3.914-1.119 1.658 5.803 3.914Zm4.062-7.36.684-1.88-6.578-2.394-.684 1.88 6.578 2.394Zm1.928-8.448.104-1.997-6.99-.367-.105 1.998 6.99.366ZM38.757 9.836l-1.94.484 1.694 6.792 1.94-.484-1.693-6.792ZM47.094 9h-2v7h2V9Zm0 63h-2v7h2v-7Zm-16.28-59.411-1.766.939 3.286 6.18 1.766-.939-3.286-6.18Zm-7.085 4.988-1.414 1.414 4.95 4.95 1.414-1.415-4.95-4.95Zm-5.635 5.678-1.119 1.658 5.804 3.914 1.118-1.658-5.803-3.914Zm-4.062 7.36-.684 1.88 6.578 2.394.684-1.88-6.578-2.393Zm-1.927 8.448L12 41.06l6.99.367.105-1.998-6.99-.366Zm26.653 39.364-1.94-.484 1.693-6.792 1.94.484-1.693 6.792Zm-7.944-2.753-1.766-.939 3.286-6.18 1.766.939-3.286 6.18Zm-7.085-4.988-1.414-1.414 4.95-4.95 1.414 1.415-4.95 4.95Zm-5.635-5.678-1.119-1.658 5.804-3.914 1.118 1.658-5.803 3.914Zm-4.062-7.36-.684-1.88 6.578-2.394.684 1.88-6.578 2.394ZM12.105 49.2 12 47.203l6.99-.367.105 1.998-6.99.366Z" clip-rule="evenodd" mask="url(#c)"/></g><g filter="url(#d)"><path fill="#fff" d="M58 21c-.961 35.922-12.494 50-12.494 50C44.065 51.583 65.208 27.796 21 40.903c0 0 22.584-16.02 37-19.903Z"/></g><defs><filter id="a" width="92.5" height="96" x="0" y="0" color-interpolation-filters="sRGB" filterUnits="userSpaceOnUse"><feFlood flood-opacity="0" result="BackgroundImageFix"/><feColorMatrix in="SourceAlpha" result="hardAlpha" values="0 0 0 0 0 0 0 0 0 0 0 0 0 0 0 0 0 0 127 0"/><feOffset dy="4"/><feGaussianBlur stdDeviation="2"/><feComposite in2="hardAlpha" operator="out"/><feColorMatrix values="0 0 0 0 0 0 0 0 0 0 0 0 0 0 0 0 0 0 0.25 0"/><feBlend in2="BackgroundImageFix" result="effect1_dropShadow_0_1"/><feBlend in="SourceGraphic" in2="effect1_dropShadow_0_1" result="shape"/></filter><filter id="b" width="77.712" height="79.2" x="7.37" y="4.4" color-interpolation-filters="sRGB" filterUnits="userSpaceOnUse"><feFlood flood-opacity="0" result="BackgroundImageFix"/><feGaussianBlur in="BackgroundImageFix" stdDeviation="2"/><feComposite in2="SourceAlpha" operator="in" result="effect1_backgroundBlur_0_1"/><feBlend in="SourceGraphic" in2="effect1_backgroundBlur_0_1" result="shape"/></filter><filter id="d" width="45" height="58" x="17" y="21" color-interpolation-filters="sRGB" filterUnits="userSpaceOnUse"><feFlood flood-opacity="0" result="BackgroundImageFix"/><feColorMatrix in="SourceAlpha" result="hardAlpha" values="0 0 0 0 0 0 0 0 0 0 0 0 0 0 0 0 0 0 127 0"/><feOffset dy="4"/><feGaussianBlur stdDeviation="2"/><feComposite in2="hardAlpha" operator="out"/><feColorMatrix values="0 0 0 0 0 0 0 0 0 0 0 0 0 0 0 0 0 0 0.25 0"/><feBlend in2="BackgroundImageFix" result="effect1_dropShadow_0_1"/><feBlend in="SourceGraphic" in2="effect1_dropShadow_0_1" result="shape"/></filter></defs></svg>