<svg width="20" height="20" viewBox="0 0 20 20" fill="none" fill-opacity="0.4" xmlns="http://www.w3.org/2000/svg">
    <path d="M17.6667 10.0003C17.6667 14.6027 13.9357 18.3337 9.33333 18.3337C4.73096 18.3337 1 14.6027 1 10.0003C1 5.39795 4.73096 1.66699 9.33333 1.66699" stroke="#616060" stroke-width="2" stroke-linecap="round" stroke-linejoin="round"/>
    <path d="M5.99951 8.45052V8.36719" stroke="#616060" stroke-width="3" stroke-linecap="round" stroke-linejoin="round"/>
    <path d="M12.6665 8.45052V8.36719" stroke="#616060" stroke-width="3" stroke-linecap="round" stroke-linejoin="round"/>
    <path d="M9.33333 15.0003C10.2174 15.0003 11.0652 14.6491 11.6904 14.024C12.3155 13.3989 12.6667 12.551 12.6667 11.667H6C6 12.551 6.35119 13.3989 6.97631 14.024C7.60143 14.6491 8.44928 15.0003 9.33333 15.0003Z" fill="#616060" fill-opacity="1" stroke="#616060" stroke-width="2" stroke-linecap="round" stroke-linejoin="round"/>
    <path d="M16.1511 0V3.40909M16.1511 6.81818V3.40909M16.1511 3.40909H12.9692M16.1511 3.40909H19.3329" stroke="#616060"/>
</svg>
