<svg width="128" height="128" viewBox="0 0 128 128" fill="none" xmlns="http://www.w3.org/2000/svg">
    <g filter="url(#filter0_d_218_2386)">
        <path fill-rule="evenodd" clip-rule="evenodd" d="M95.4062 0C112.75 0 124 11.25 124 28.5938V91.4062C124 108.75 112.75 120 95.4062 120H32.5938C15.25 120 4 108.75 4 91.4062V28.5938C4 11.25 15.25 0 32.5938 0H95.4062Z" fill="white"/>
        <path fill-rule="evenodd" clip-rule="evenodd" d="M95.4062 0C112.75 0 124 11.25 124 28.5938V91.4062C124 108.75 112.75 120 95.4062 120H32.5938C15.25 120 4 108.75 4 91.4062V28.5938C4 11.25 15.25 0 32.5938 0H95.4062Z" fill="white"/>
        <path d="M95.4062 0.5C103.968 0.5 110.982 3.27459 115.853 8.14653C120.725 13.0185 123.5 20.0321 123.5 28.5938V91.4062C123.5 99.9679 120.725 106.982 115.853 111.853C110.982 116.725 103.968 119.5 95.4062 119.5H32.5938C24.0321 119.5 17.0185 116.725 12.1465 111.853C7.27459 106.982 4.5 99.9679 4.5 91.4062V28.5938C4.5 20.0321 7.27459 13.0185 12.1465 8.14653C17.0185 3.27459 24.0321 0.5 32.5938 0.5H95.4062Z" stroke="black" stroke-opacity="0.1"/>
        <g filter="url(#filter1_d_218_2386)">
            <ellipse cx="62.25" cy="60" rx="42.25" ry="44" fill="#5BE2FF"/>
        </g>
        <g filter="url(#filter2_b_218_2386)">
            <mask id="path-5-outside-1_218_2386" maskUnits="userSpaceOnUse" x="27" y="24" width="71" height="72" fill="black">
                <rect fill="white" x="27" y="24" width="71" height="72"/>
                <path fill-rule="evenodd" clip-rule="evenodd" d="M69.6935 25.8362L71.634 26.3201L69.9406 33.1121L68 32.6283L69.6935 25.8362ZM77.6372 28.5887L79.4031 29.5276L76.1168 35.7083L74.3509 34.7693L77.6372 28.5887ZM84.7222 33.5768L86.1365 34.991L81.1867 39.9407L79.7725 38.5265L84.7222 33.5768ZM90.3574 39.2546L91.4757 40.9127L85.6725 44.827L84.5541 43.169L90.3574 39.2546ZM94.4189 46.6155L95.103 48.4949L88.5251 50.889L87.8411 49.0096L94.4189 46.6155ZM96.3465 55.0632L96.4512 57.0605L89.4608 57.4268L89.3561 55.4295L96.3465 55.0632ZM69.6935 94.4268L71.634 93.943L69.9406 87.1509L68 87.6347L69.6935 94.4268ZM77.6372 91.6743L79.4031 90.7354L76.1168 84.5548L74.3509 85.4937L77.6372 91.6743ZM84.7222 86.6863L86.1365 85.2721L81.1867 80.3223L79.7725 81.7365L84.7222 86.6863ZM90.3574 81.0084L91.4757 79.3503L85.6725 75.436L84.5541 77.0941L90.3574 81.0084ZM94.4189 73.6476L95.103 71.7682L88.5251 69.374L87.8411 71.2534L94.4189 73.6476ZM96.3465 65.1999L96.4512 63.2026L89.4608 62.8362L89.3561 64.8335L96.3465 65.1999ZM54.7577 25.8362L52.8171 26.3201L54.5106 33.1121L56.4512 32.6283L54.7577 25.8362ZM63.0933 25H61.0933V32H63.0933V25ZM63.0933 88H61.0933V95H63.0933V88ZM46.814 28.5887L45.0481 29.5276L48.3344 35.7083L50.1003 34.7693L46.814 28.5887ZM39.7289 33.5768L38.3147 34.991L43.2645 39.9407L44.6787 38.5265L39.7289 33.5768ZM34.0938 39.2546L32.9754 40.9127L38.7787 44.827L39.8971 43.169L34.0938 39.2546ZM30.0322 46.6155L29.3482 48.4949L35.926 50.889L36.6101 49.0096L30.0322 46.6155ZM28.1047 55.0632L28 57.0605L34.9904 57.4268L35.0951 55.4295L28.1047 55.0632ZM54.7577 94.4268L52.8171 93.943L54.5106 87.1509L56.4512 87.6347L54.7577 94.4268ZM46.814 91.6743L45.0481 90.7354L48.3344 84.5548L50.1003 85.4937L46.814 91.6743ZM39.7289 86.6863L38.3147 85.2721L43.2645 80.3223L44.6787 81.7365L39.7289 86.6863ZM34.0938 81.0084L32.9754 79.3503L38.7787 75.436L39.8971 77.0941L34.0938 81.0084ZM30.0322 73.6476L29.3482 71.7682L35.926 69.374L36.6101 71.2534L30.0322 73.6476ZM28.1047 65.1999L28 63.2026L34.9904 62.8362L35.0951 64.8335L28.1047 65.1999Z"/>
            </mask>
            <path fill-rule="evenodd" clip-rule="evenodd" d="M69.6935 25.8362L71.634 26.3201L69.9406 33.1121L68 32.6283L69.6935 25.8362ZM77.6372 28.5887L79.4031 29.5276L76.1168 35.7083L74.3509 34.7693L77.6372 28.5887ZM84.7222 33.5768L86.1365 34.991L81.1867 39.9407L79.7725 38.5265L84.7222 33.5768ZM90.3574 39.2546L91.4757 40.9127L85.6725 44.827L84.5541 43.169L90.3574 39.2546ZM94.4189 46.6155L95.103 48.4949L88.5251 50.889L87.8411 49.0096L94.4189 46.6155ZM96.3465 55.0632L96.4512 57.0605L89.4608 57.4268L89.3561 55.4295L96.3465 55.0632ZM69.6935 94.4268L71.634 93.943L69.9406 87.1509L68 87.6347L69.6935 94.4268ZM77.6372 91.6743L79.4031 90.7354L76.1168 84.5548L74.3509 85.4937L77.6372 91.6743ZM84.7222 86.6863L86.1365 85.2721L81.1867 80.3223L79.7725 81.7365L84.7222 86.6863ZM90.3574 81.0084L91.4757 79.3503L85.6725 75.436L84.5541 77.0941L90.3574 81.0084ZM94.4189 73.6476L95.103 71.7682L88.5251 69.374L87.8411 71.2534L94.4189 73.6476ZM96.3465 65.1999L96.4512 63.2026L89.4608 62.8362L89.3561 64.8335L96.3465 65.1999ZM54.7577 25.8362L52.8171 26.3201L54.5106 33.1121L56.4512 32.6283L54.7577 25.8362ZM63.0933 25H61.0933V32H63.0933V25ZM63.0933 88H61.0933V95H63.0933V88ZM46.814 28.5887L45.0481 29.5276L48.3344 35.7083L50.1003 34.7693L46.814 28.5887ZM39.7289 33.5768L38.3147 34.991L43.2645 39.9407L44.6787 38.5265L39.7289 33.5768ZM34.0938 39.2546L32.9754 40.9127L38.7787 44.827L39.8971 43.169L34.0938 39.2546ZM30.0322 46.6155L29.3482 48.4949L35.926 50.889L36.6101 49.0096L30.0322 46.6155ZM28.1047 55.0632L28 57.0605L34.9904 57.4268L35.0951 55.4295L28.1047 55.0632ZM54.7577 94.4268L52.8171 93.943L54.5106 87.1509L56.4512 87.6347L54.7577 94.4268ZM46.814 91.6743L45.0481 90.7354L48.3344 84.5548L50.1003 85.4937L46.814 91.6743ZM39.7289 86.6863L38.3147 85.2721L43.2645 80.3223L44.6787 81.7365L39.7289 86.6863ZM34.0938 81.0084L32.9754 79.3503L38.7787 75.436L39.8971 77.0941L34.0938 81.0084ZM30.0322 73.6476L29.3482 71.7682L35.926 69.374L36.6101 71.2534L30.0322 73.6476ZM28.1047 65.1999L28 63.2026L34.9904 62.8362L35.0951 64.8335L28.1047 65.1999Z" fill="white"/>
            <path fill-rule="evenodd" clip-rule="evenodd" d="M69.6935 25.8362L71.634 26.3201L69.9406 33.1121L68 32.6283L69.6935 25.8362ZM77.6372 28.5887L79.4031 29.5276L76.1168 35.7083L74.3509 34.7693L77.6372 28.5887ZM84.7222 33.5768L86.1365 34.991L81.1867 39.9407L79.7725 38.5265L84.7222 33.5768ZM90.3574 39.2546L91.4757 40.9127L85.6725 44.827L84.5541 43.169L90.3574 39.2546ZM94.4189 46.6155L95.103 48.4949L88.5251 50.889L87.8411 49.0096L94.4189 46.6155ZM96.3465 55.0632L96.4512 57.0605L89.4608 57.4268L89.3561 55.4295L96.3465 55.0632ZM69.6935 94.4268L71.634 93.943L69.9406 87.1509L68 87.6347L69.6935 94.4268ZM77.6372 91.6743L79.4031 90.7354L76.1168 84.5548L74.3509 85.4937L77.6372 91.6743ZM84.7222 86.6863L86.1365 85.2721L81.1867 80.3223L79.7725 81.7365L84.7222 86.6863ZM90.3574 81.0084L91.4757 79.3503L85.6725 75.436L84.5541 77.0941L90.3574 81.0084ZM94.4189 73.6476L95.103 71.7682L88.5251 69.374L87.8411 71.2534L94.4189 73.6476ZM96.3465 65.1999L96.4512 63.2026L89.4608 62.8362L89.3561 64.8335L96.3465 65.1999ZM54.7577 25.8362L52.8171 26.3201L54.5106 33.1121L56.4512 32.6283L54.7577 25.8362ZM63.0933 25H61.0933V32H63.0933V25ZM63.0933 88H61.0933V95H63.0933V88ZM46.814 28.5887L45.0481 29.5276L48.3344 35.7083L50.1003 34.7693L46.814 28.5887ZM39.7289 33.5768L38.3147 34.991L43.2645 39.9407L44.6787 38.5265L39.7289 33.5768ZM34.0938 39.2546L32.9754 40.9127L38.7787 44.827L39.8971 43.169L34.0938 39.2546ZM30.0322 46.6155L29.3482 48.4949L35.926 50.889L36.6101 49.0096L30.0322 46.6155ZM28.1047 55.0632L28 57.0605L34.9904 57.4268L35.0951 55.4295L28.1047 55.0632ZM54.7577 94.4268L52.8171 93.943L54.5106 87.1509L56.4512 87.6347L54.7577 94.4268ZM46.814 91.6743L45.0481 90.7354L48.3344 84.5548L50.1003 85.4937L46.814 91.6743ZM39.7289 86.6863L38.3147 85.2721L43.2645 80.3223L44.6787 81.7365L39.7289 86.6863ZM34.0938 81.0084L32.9754 79.3503L38.7787 75.436L39.8971 77.0941L34.0938 81.0084ZM30.0322 73.6476L29.3482 71.7682L35.926 69.374L36.6101 71.2534L30.0322 73.6476ZM28.1047 65.1999L28 63.2026L34.9904 62.8362L35.0951 64.8335L28.1047 65.1999Z" stroke="#3A3A3A" stroke-opacity="0.1" stroke-width="1.2" mask="url(#path-5-outside-1_218_2386)"/>
        </g>
        <g filter="url(#filter3_d_218_2386)">
            <path d="M73.9999 37C73.0389 72.9223 61.5064 87 61.5064 87C60.0649 67.5825 81.2077 43.7961 36.9999 56.9029C36.9999 56.9029 59.5843 40.8835 73.9999 37Z" fill="white"/>
        </g>
    </g>
    <defs>
        <filter id="filter0_d_218_2386" x="0" y="0" width="128" height="128" filterUnits="userSpaceOnUse" color-interpolation-filters="sRGB">
            <feFlood flood-opacity="0" result="BackgroundImageFix"/>
            <feColorMatrix in="SourceAlpha" type="matrix" values="0 0 0 0 0 0 0 0 0 0 0 0 0 0 0 0 0 0 127 0" result="hardAlpha"/>
            <feOffset dy="4"/>
            <feGaussianBlur stdDeviation="2"/>
            <feComposite in2="hardAlpha" operator="out"/>
            <feColorMatrix type="matrix" values="0 0 0 0 0 0 0 0 0 0 0 0 0 0 0 0 0 0 0.25 0"/>
            <feBlend mode="normal" in2="BackgroundImageFix" result="effect1_dropShadow_218_2386"/>
            <feBlend mode="normal" in="SourceGraphic" in2="effect1_dropShadow_218_2386" result="shape"/>
        </filter>
        <filter id="filter1_d_218_2386" x="16" y="16" width="92.5" height="96" filterUnits="userSpaceOnUse" color-interpolation-filters="sRGB">
            <feFlood flood-opacity="0" result="BackgroundImageFix"/>
            <feColorMatrix in="SourceAlpha" type="matrix" values="0 0 0 0 0 0 0 0 0 0 0 0 0 0 0 0 0 0 127 0" result="hardAlpha"/>
            <feOffset dy="4"/>
            <feGaussianBlur stdDeviation="2"/>
            <feComposite in2="hardAlpha" operator="out"/>
            <feColorMatrix type="matrix" values="0 0 0 0 0 0 0 0 0 0 0 0 0 0 0 0 0 0 0.25 0"/>
            <feBlend mode="normal" in2="BackgroundImageFix" result="effect1_dropShadow_218_2386"/>
            <feBlend mode="normal" in="SourceGraphic" in2="effect1_dropShadow_218_2386" result="shape"/>
        </filter>
        <filter id="filter2_b_218_2386" x="23.3696" y="20.4" width="77.7124" height="79.2" filterUnits="userSpaceOnUse" color-interpolation-filters="sRGB">
            <feFlood flood-opacity="0" result="BackgroundImageFix"/>
            <feGaussianBlur in="BackgroundImageFix" stdDeviation="2"/>
            <feComposite in2="SourceAlpha" operator="in" result="effect1_backgroundBlur_218_2386"/>
            <feBlend mode="normal" in="SourceGraphic" in2="effect1_backgroundBlur_218_2386" result="shape"/>
        </filter>
        <filter id="filter3_d_218_2386" x="33" y="37" width="45" height="58" filterUnits="userSpaceOnUse" color-interpolation-filters="sRGB">
            <feFlood flood-opacity="0" result="BackgroundImageFix"/>
            <feColorMatrix in="SourceAlpha" type="matrix" values="0 0 0 0 0 0 0 0 0 0 0 0 0 0 0 0 0 0 127 0" result="hardAlpha"/>
            <feOffset dy="4"/>
            <feGaussianBlur stdDeviation="2"/>
            <feComposite in2="hardAlpha" operator="out"/>
            <feColorMatrix type="matrix" values="0 0 0 0 0 0 0 0 0 0 0 0 0 0 0 0 0 0 0.25 0"/>
            <feBlend mode="normal" in2="BackgroundImageFix" result="effect1_dropShadow_218_2386"/>
            <feBlend mode="normal" in="SourceGraphic" in2="effect1_dropShadow_218_2386" result="shape"/>
        </filter>
    </defs>
</svg>
