<svg width="24" height="24" viewBox="0 0 24 24" fill="none" xmlns="http://www.w3.org/2000/svg">
    <g clip-path="url(#clip0_43_3144)">
        <path fill-rule="evenodd" clip-rule="evenodd" d="M3 0C2.44772 0 2 0.447716 2 1V23C2 23.5523 2.44772 24 3 24H21C21.5523 24 22 23.5523 22 23V4L18 0H3Z" fill="#E9F0FA"/>
        <path fill-rule="evenodd" clip-rule="evenodd" d="M18 0V4H22L18 0Z" fill="#C2CDDE"/>
    </g>
    <rect x="1" y="10" width="22" height="10" rx="1" fill="#6D56F8"/>
    <path d="M3.76918 12.1818H5.05895L6.78622 16.3977H6.8544L8.58168 12.1818H9.87145V18H8.86009V14.0028H8.80611L7.19815 17.983H6.44247L4.83452 13.9943H4.78054V18H3.76918V12.1818ZM11.0192 18V12.1818H13.201C13.648 12.1818 14.023 12.2652 14.326 12.4318C14.6309 12.5985 14.861 12.8277 15.0163 13.1193C15.1735 13.4091 15.2521 13.7386 15.2521 14.108C15.2521 14.4811 15.1735 14.8125 15.0163 15.1023C14.8591 15.392 14.6271 15.6203 14.3203 15.7869C14.0135 15.9517 13.6357 16.0341 13.1868 16.0341H11.7408V15.1676H13.0447C13.3061 15.1676 13.5201 15.1222 13.6868 15.0312C13.8535 14.9403 13.9766 14.8153 14.0561 14.6562C14.1375 14.4972 14.1783 14.3144 14.1783 14.108C14.1783 13.9015 14.1375 13.7197 14.0561 13.5625C13.9766 13.4053 13.8525 13.2831 13.6839 13.196C13.5173 13.107 13.3023 13.0625 13.0391 13.0625H12.0732V18H11.0192ZM18.1989 18.0795C17.7898 18.0795 17.4261 18.0095 17.108 17.8693C16.7917 17.7292 16.5417 17.5341 16.358 17.2841C16.1742 17.0341 16.0767 16.7453 16.0653 16.4176H17.1335C17.143 16.5748 17.1951 16.7121 17.2898 16.8295C17.3845 16.9451 17.5104 17.035 17.6676 17.0994C17.8248 17.1638 18.0009 17.196 18.196 17.196C18.4044 17.196 18.589 17.16 18.75 17.0881C18.911 17.0142 19.0369 16.9119 19.1278 16.7812C19.2188 16.6506 19.2633 16.5 19.2614 16.3295C19.2633 16.1534 19.2178 15.9981 19.125 15.8636C19.0322 15.7292 18.8977 15.6241 18.7216 15.5483C18.5473 15.4725 18.3371 15.4347 18.0909 15.4347H17.5767V14.6222H18.0909C18.2936 14.6222 18.4706 14.5871 18.6222 14.517C18.7756 14.447 18.8958 14.3485 18.983 14.2216C19.0701 14.0928 19.1127 13.9441 19.1108 13.7756C19.1127 13.6108 19.0758 13.4678 19 13.3466C18.9261 13.2235 18.821 13.1278 18.6847 13.0597C18.5502 12.9915 18.392 12.9574 18.2102 12.9574C18.0322 12.9574 17.8674 12.9896 17.7159 13.054C17.5644 13.1184 17.4422 13.2102 17.3494 13.3295C17.2566 13.447 17.2074 13.5871 17.2017 13.75H16.1875C16.1951 13.4242 16.2888 13.1383 16.4688 12.892C16.6506 12.6439 16.893 12.4508 17.196 12.3125C17.4991 12.1723 17.839 12.1023 18.2159 12.1023C18.6042 12.1023 18.9413 12.1752 19.2273 12.321C19.5152 12.465 19.7377 12.6591 19.8949 12.9034C20.0521 13.1477 20.1307 13.4176 20.1307 13.7131C20.1326 14.0407 20.036 14.3153 19.8409 14.5369C19.6477 14.7585 19.3939 14.9034 19.0795 14.9716V15.017C19.4886 15.0739 19.8021 15.2254 20.0199 15.4716C20.2396 15.7159 20.3485 16.0199 20.3466 16.3835C20.3466 16.7093 20.2538 17.0009 20.0682 17.2585C19.8845 17.5142 19.6307 17.715 19.3068 17.8608C18.9848 18.0066 18.6155 18.0795 18.1989 18.0795Z" fill="white"/>
    <defs>
        <clipPath id="clip0_43_3144">
            <rect width="20" height="24" fill="white" transform="translate(2)"/>
        </clipPath>
    </defs>
</svg>
