<svg width="24" height="24" viewBox="0 0 24 24" fill="none" xmlns="http://www.w3.org/2000/svg">
    <g clip-path="url(#clip0_373_2130)">
        <path fill-rule="evenodd" clip-rule="evenodd" d="M3 0C2.44772 0 2 0.447716 2 1V23C2 23.5523 2.44772 24 3 24H21C21.5523 24 22 23.5523 22 23V4L18 0H3Z" fill="#E9F0FA"/>
        <path fill-rule="evenodd" clip-rule="evenodd" d="M18 0V4H22L18 0Z" fill="#C2CDDE"/>
    </g>
    <rect x="1" y="10" width="22" height="10" rx="1" fill="#616161"/>
    <path d="M5.77308 18V12.1818H9.50036V13.0653H6.82706V14.6449H9.24467V15.5284H6.82706V18H5.77308ZM10.4151 18V13.6364H11.4435V18H10.4151ZM10.9322 13.017C10.7693 13.017 10.6291 12.9631 10.5117 12.8551C10.3943 12.7453 10.3356 12.6136 10.3356 12.4602C10.3356 12.3049 10.3943 12.1733 10.5117 12.0653C10.6291 11.9555 10.7693 11.9006 10.9322 11.9006C11.0969 11.9006 11.2371 11.9555 11.3526 12.0653C11.4701 12.1733 11.5288 12.3049 11.5288 12.4602C11.5288 12.6136 11.4701 12.7453 11.3526 12.8551C11.2371 12.9631 11.0969 13.017 10.9322 13.017ZM13.5295 12.1818V18H12.5011V12.1818H13.5295ZM16.5188 18.0852C16.0813 18.0852 15.7035 17.9943 15.3853 17.8125C15.069 17.6288 14.8256 17.3693 14.6552 17.0341C14.4847 16.697 14.3995 16.3002 14.3995 15.8438C14.3995 15.3949 14.4847 15.0009 14.6552 14.6619C14.8275 14.321 15.0681 14.0559 15.3768 13.8665C15.6855 13.6752 16.0482 13.5795 16.4648 13.5795C16.7338 13.5795 16.9876 13.6231 17.2262 13.7102C17.4667 13.7955 17.6789 13.928 17.8626 14.108C18.0482 14.2879 18.194 14.517 18.3001 14.7955C18.4061 15.072 18.4592 15.4015 18.4592 15.7841V16.0994H14.8825V15.4062H17.4734C17.4715 15.2093 17.4289 15.0341 17.3455 14.8807C17.2622 14.7254 17.1457 14.6032 16.9961 14.5142C16.8484 14.4252 16.676 14.3807 16.479 14.3807C16.2688 14.3807 16.0842 14.4318 15.9251 14.5341C15.766 14.6345 15.6419 14.767 15.5529 14.9318C15.4658 15.0947 15.4213 15.2737 15.4194 15.4688V16.0739C15.4194 16.3277 15.4658 16.5455 15.5586 16.7273C15.6514 16.9072 15.7811 17.0455 15.9478 17.142C16.1145 17.2367 16.3095 17.2841 16.533 17.2841C16.6826 17.2841 16.8181 17.2633 16.9393 17.2216C17.0605 17.178 17.1656 17.1146 17.2546 17.0312C17.3436 16.9479 17.4109 16.8447 17.4563 16.7216L18.4165 16.8295C18.3559 17.0833 18.2404 17.3049 18.07 17.4943C17.9014 17.6818 17.6855 17.8277 17.4222 17.9318C17.159 18.0341 16.8578 18.0852 16.5188 18.0852Z" fill="white"/>
    <defs>
        <clipPath id="clip0_373_2130">
            <rect width="20" height="24" fill="white" transform="translate(2)"/>
        </clipPath>
    </defs>
</svg>
