<svg width="24" height="24" viewBox="0 0 24 24" fill="none" xmlns="http://www.w3.org/2000/svg">
    <g clip-path="url(#clip0_43_3180)">
        <path fill-rule="evenodd" clip-rule="evenodd" d="M3 0C2.44772 0 2 0.447716 2 1V23C2 23.5523 2.44772 24 3 24H21C21.5523 24 22 23.5523 22 23V4L18 0H3Z" fill="#E9F0FA"/>
        <path fill-rule="evenodd" clip-rule="evenodd" d="M18 0V4H22L18 0Z" fill="#C2CDDE"/>
    </g>
    <rect x="1" y="10" width="22" height="10" rx="1" fill="#C548F1"/>
    <path d="M7.03338 12.1818H8.07884V16.2727C8.07694 16.6477 7.9974 16.9706 7.8402 17.2415C7.683 17.5104 7.4633 17.7178 7.18111 17.8636C6.9008 18.0076 6.5741 18.0795 6.20099 18.0795C5.86009 18.0795 5.55327 18.0189 5.28054 17.8977C5.00971 17.7746 4.79474 17.5928 4.63565 17.3523C4.47656 17.1117 4.39702 16.8125 4.39702 16.4545H5.44531C5.44721 16.6117 5.4813 16.7472 5.54759 16.8608C5.61577 16.9744 5.70952 17.0616 5.82884 17.1222C5.94815 17.1828 6.08546 17.2131 6.24077 17.2131C6.40933 17.2131 6.55232 17.178 6.66974 17.108C6.78717 17.036 6.87618 16.9299 6.93679 16.7898C6.99929 16.6496 7.03149 16.4773 7.03338 16.2727V12.1818ZM9.2223 18V12.1818H11.4041C11.8511 12.1818 12.2261 12.2652 12.5291 12.4318C12.834 12.5985 13.0642 12.8277 13.2195 13.1193C13.3767 13.4091 13.4553 13.7386 13.4553 14.108C13.4553 14.4811 13.3767 14.8125 13.2195 15.1023C13.0623 15.392 12.8303 15.6203 12.5234 15.7869C12.2166 15.9517 11.8388 16.0341 11.3899 16.0341H9.94389V15.1676H11.2479C11.5092 15.1676 11.7232 15.1222 11.8899 15.0312C12.0566 14.9403 12.1797 14.8153 12.2592 14.6562C12.3407 14.4972 12.3814 14.3144 12.3814 14.108C12.3814 13.9015 12.3407 13.7197 12.2592 13.5625C12.1797 13.4053 12.0556 13.2831 11.8871 13.196C11.7204 13.107 11.5054 13.0625 11.2422 13.0625H10.2763V18H9.2223ZM18.2685 14.0398C18.2211 13.8864 18.1558 13.7491 18.0724 13.6278C17.991 13.5047 17.8925 13.3996 17.777 13.3125C17.6634 13.2254 17.5327 13.16 17.3849 13.1165C17.2372 13.071 17.0762 13.0483 16.902 13.0483C16.5895 13.0483 16.3111 13.1269 16.0668 13.2841C15.8224 13.4413 15.6302 13.6723 15.4901 13.9773C15.3518 14.2803 15.2827 14.6496 15.2827 15.0852C15.2827 15.5246 15.3518 15.8968 15.4901 16.2017C15.6283 16.5066 15.8205 16.7386 16.0668 16.8977C16.313 17.0549 16.599 17.1335 16.9247 17.1335C17.2202 17.1335 17.4759 17.0767 17.6918 16.9631C17.9096 16.8494 18.0772 16.6884 18.1946 16.4801C18.312 16.2699 18.3707 16.0237 18.3707 15.7415L18.6094 15.7784H17.0298V14.9545H19.3906V15.6534C19.3906 16.1515 19.2846 16.5824 19.0724 16.946C18.8603 17.3097 18.5687 17.59 18.1974 17.7869C17.8262 17.982 17.4001 18.0795 16.919 18.0795C16.383 18.0795 15.9124 17.9593 15.5071 17.7188C15.1037 17.4763 14.7884 17.1326 14.5611 16.6875C14.3357 16.2405 14.223 15.7102 14.223 15.0966C14.223 14.6269 14.2893 14.2074 14.4219 13.8381C14.5563 13.4688 14.7438 13.1553 14.9844 12.8977C15.2249 12.6383 15.5071 12.4413 15.831 12.3068C16.1548 12.1705 16.5071 12.1023 16.8878 12.1023C17.2098 12.1023 17.5099 12.1496 17.7884 12.2443C18.0668 12.3371 18.3139 12.4697 18.5298 12.642C18.7476 12.8144 18.9266 13.0189 19.0668 13.2557C19.2069 13.4924 19.2988 13.7538 19.3423 14.0398H18.2685Z" fill="white"/>
    <defs>
        <clipPath id="clip0_43_3180">
            <rect width="20" height="24" fill="white" transform="translate(2)"/>
        </clipPath>
    </defs>
</svg>
