<svg width="483" height="119" viewBox="0 0 483 119" fill="none" xmlns="http://www.w3.org/2000/svg">
<g filter="url(#filter0_d_101_3)">
<path d="M45.902 18.6364C45.4929 15.1818 43.8338 12.5 40.9247 10.5909C38.0156 8.68182 34.4474 7.72727 30.2202 7.72727C27.1293 7.72727 24.4247 8.22727 22.1065 9.22727C19.8111 10.2273 18.0156 11.6023 16.7202 13.3523C15.4474 15.1023 14.8111 17.0909 14.8111 19.3182C14.8111 21.1818 15.2543 22.7841 16.1406 24.125C17.0497 25.4432 18.2088 26.5455 19.6179 27.4318C21.027 28.2955 22.5043 29.0114 24.0497 29.5795C25.5952 30.125 27.0156 30.5682 28.3111 30.9091L35.402 32.8182C37.2202 33.2955 39.2429 33.9545 41.4702 34.7955C43.7202 35.6364 45.8679 36.7841 47.9134 38.2386C49.9815 39.6705 51.6861 41.5114 53.027 43.7614C54.3679 46.0114 55.0384 48.7727 55.0384 52.0455C55.0384 55.8182 54.0497 59.2273 52.0724 62.2727C50.1179 65.3182 47.2543 67.7386 43.4815 69.5341C39.7315 71.3295 35.1747 72.2273 29.8111 72.2273C24.8111 72.2273 20.4815 71.4205 16.8224 69.8068C13.1861 68.1932 10.3224 65.9432 8.23153 63.0568C6.16335 60.1705 4.9929 56.8182 4.72017 53H13.4474C13.6747 55.6364 14.5611 57.8182 16.1065 59.5455C17.6747 61.25 19.652 62.5227 22.0384 63.3636C24.4474 64.1818 27.0384 64.5909 29.8111 64.5909C33.0384 64.5909 35.9361 64.0682 38.5043 63.0227C41.0724 61.9545 43.1065 60.4773 44.6065 58.5909C46.1065 56.6818 46.8565 54.4545 46.8565 51.9091C46.8565 49.5909 46.2088 47.7045 44.9134 46.25C43.6179 44.7955 41.9134 43.6136 39.7997 42.7045C37.6861 41.7955 35.402 41 32.9474 40.3182L24.3565 37.8636C18.902 36.2955 14.5838 34.0568 11.402 31.1477C8.22017 28.2386 6.62926 24.4318 6.62926 19.7273C6.62926 15.8182 7.68608 12.4091 9.79972 9.5C11.9361 6.56818 14.7997 4.29545 18.3906 2.68182C22.0043 1.04545 26.0384 0.22727 30.4929 0.22727C34.9929 0.22727 38.9929 1.03409 42.4929 2.64772C45.9929 4.23863 48.7656 6.42045 50.8111 9.19318C52.8793 11.9659 53.9702 15.1136 54.0838 18.6364H45.902ZM154.848 36.0909C154.848 43.4545 153.518 49.8182 150.859 55.1818C148.2 60.5455 144.553 64.6818 139.916 67.5909C135.28 70.5 129.984 71.9545 124.03 71.9545C118.075 71.9545 112.78 70.5 108.143 67.5909C103.507 64.6818 99.8594 60.5455 97.2003 55.1818C94.5412 49.8182 93.2116 43.4545 93.2116 36.0909C93.2116 28.7273 94.5412 22.3636 97.2003 17C99.8594 11.6364 103.507 7.5 108.143 4.59091C112.78 1.68182 118.075 0.22727 124.03 0.22727C129.984 0.22727 135.28 1.68182 139.916 4.59091C144.553 7.5 148.2 11.6364 150.859 17C153.518 22.3636 154.848 28.7273 154.848 36.0909ZM146.666 36.0909C146.666 30.0455 145.655 24.9432 143.632 20.7841C141.632 16.625 138.916 13.4773 135.484 11.3409C132.075 9.20454 128.257 8.13636 124.03 8.13636C119.803 8.13636 115.973 9.20454 112.541 11.3409C109.132 13.4773 106.416 16.625 104.393 20.7841C102.393 24.9432 101.393 30.0455 101.393 36.0909C101.393 42.1364 102.393 47.2386 104.393 51.3977C106.416 55.5568 109.132 58.7045 112.541 60.8409C115.973 62.9773 119.803 64.0455 124.03 64.0455C128.257 64.0455 132.075 62.9773 135.484 60.8409C138.916 58.7045 141.632 55.5568 143.632 51.3977C145.655 47.2386 146.666 42.1364 146.666 36.0909ZM252.246 23H243.791C243.291 20.5682 242.416 18.4318 241.166 16.5909C239.939 14.75 238.439 13.2045 236.666 11.9545C234.916 10.6818 232.973 9.72727 230.837 9.09091C228.7 8.45454 226.473 8.13636 224.155 8.13636C219.928 8.13636 216.098 9.20454 212.666 11.3409C209.257 13.4773 206.541 16.625 204.518 20.7841C202.518 24.9432 201.518 30.0455 201.518 36.0909C201.518 42.1364 202.518 47.2386 204.518 51.3977C206.541 55.5568 209.257 58.7045 212.666 60.8409C216.098 62.9773 219.928 64.0455 224.155 64.0455C226.473 64.0455 228.7 63.7273 230.837 63.0909C232.973 62.4545 234.916 61.5114 236.666 60.2614C238.439 58.9886 239.939 57.4318 241.166 55.5909C242.416 53.7273 243.291 51.5909 243.791 49.1818H252.246C251.609 52.75 250.45 55.9432 248.768 58.7614C247.087 61.5795 244.996 63.9773 242.496 65.9545C239.996 67.9091 237.189 69.3977 234.075 70.4205C230.984 71.4432 227.678 71.9545 224.155 71.9545C218.2 71.9545 212.905 70.5 208.268 67.5909C203.632 64.6818 199.984 60.5455 197.325 55.1818C194.666 49.8182 193.337 43.4545 193.337 36.0909C193.337 28.7273 194.666 22.3636 197.325 17C199.984 11.6364 203.632 7.5 208.268 4.59091C212.905 1.68182 218.2 0.22727 224.155 0.22727C227.678 0.22727 230.984 0.738634 234.075 1.76136C237.189 2.78409 239.996 4.28409 242.496 6.26136C244.996 8.21591 247.087 10.6023 248.768 13.4205C250.45 16.2159 251.609 19.4091 252.246 23ZM301.362 1.18182V71H292.908V1.18182H301.362ZM348.178 71H339.314L364.95 1.18182H373.678L399.314 71H390.45L369.587 12.2273H369.041L348.178 71ZM351.45 43.7273H387.178V51.2273H351.45V43.7273ZM437.189 71V1.18182H445.643V63.5H478.098V71H437.189ZM136.568 110V86.7273H144.705C146.326 86.7273 147.663 87.0076 148.716 87.5682C149.769 88.1212 150.553 88.8674 151.068 89.8068C151.583 90.7386 151.841 91.7727 151.841 92.9091C151.841 93.9091 151.663 94.7348 151.307 95.3864C150.958 96.0379 150.496 96.553 149.92 96.9318C149.352 97.3106 148.735 97.5909 148.068 97.7727V98C148.78 98.0455 149.496 98.2955 150.216 98.75C150.936 99.2045 151.538 99.8561 152.023 100.705C152.508 101.553 152.75 102.591 152.75 103.818C152.75 104.985 152.485 106.034 151.955 106.966C151.424 107.898 150.587 108.636 149.443 109.182C148.299 109.727 146.811 110 144.977 110H136.568ZM139.386 107.5H144.977C146.818 107.5 148.125 107.144 148.898 106.432C149.678 105.712 150.068 104.841 150.068 103.818C150.068 103.03 149.867 102.303 149.466 101.636C149.064 100.962 148.492 100.424 147.75 100.023C147.008 99.6136 146.129 99.4091 145.114 99.4091H139.386V107.5ZM139.386 96.9545H144.614C145.462 96.9545 146.227 96.7879 146.909 96.4545C147.598 96.1212 148.144 95.6515 148.545 95.0455C148.955 94.4394 149.159 93.7273 149.159 92.9091C149.159 91.8864 148.803 91.0189 148.091 90.3068C147.379 89.5871 146.25 89.2273 144.705 89.2273H139.386V96.9545ZM155.381 86.7273H158.608L165.062 97.5909H165.335L171.79 86.7273H175.017L166.608 100.409V110H163.79V100.409L155.381 86.7273ZM207.298 98.3636C207.298 100.818 206.855 102.939 205.969 104.727C205.082 106.515 203.866 107.894 202.321 108.864C200.776 109.833 199.01 110.318 197.026 110.318C195.041 110.318 193.276 109.833 191.73 108.864C190.185 107.894 188.969 106.515 188.082 104.727C187.196 102.939 186.753 100.818 186.753 98.3636C186.753 95.9091 187.196 93.7879 188.082 92C188.969 90.2121 190.185 88.8333 191.73 87.8636C193.276 86.8939 195.041 86.4091 197.026 86.4091C199.01 86.4091 200.776 86.8939 202.321 87.8636C203.866 88.8333 205.082 90.2121 205.969 92C206.855 93.7879 207.298 95.9091 207.298 98.3636ZM204.571 98.3636C204.571 96.3485 204.234 94.6477 203.56 93.2614C202.893 91.875 201.988 90.8258 200.844 90.1136C199.707 89.4015 198.435 89.0455 197.026 89.0455C195.616 89.0455 194.34 89.4015 193.196 90.1136C192.06 90.8258 191.154 91.875 190.48 93.2614C189.813 94.6477 189.48 96.3485 189.48 98.3636C189.48 100.379 189.813 102.08 190.48 103.466C191.154 104.852 192.06 105.902 193.196 106.614C194.34 107.326 195.616 107.682 197.026 107.682C198.435 107.682 199.707 107.326 200.844 106.614C201.988 105.902 202.893 104.852 203.56 103.466C204.234 102.08 204.571 100.379 204.571 98.3636ZM230.491 86.7273V110H227.764L215.082 91.7273H214.855V110H212.037V86.7273H214.764L227.491 105.045H227.719V86.7273H230.491ZM236.131 110V86.7273H250.176V89.2273H238.949V97.0909H249.449V99.5909H238.949V107.5H250.358V110H236.131ZM255.256 86.7273H258.619L266.528 106.045H266.801L274.71 86.7273H278.074V110H275.438V92.3182H275.21L267.938 110H265.392L258.119 92.3182H257.892V110H255.256V86.7273ZM284.679 110H281.724L290.27 86.7273H293.179L301.724 110H298.77L291.815 90.4091H291.634L284.679 110ZM285.77 100.909H297.679V103.409H285.77V100.909ZM323.804 86.7273V110H321.077L308.395 91.7273H308.168V110H305.349V86.7273H308.077L320.804 105.045H321.031V86.7273H323.804ZM330.398 110H327.443L335.989 86.7273H338.898L347.443 110H344.489L337.534 90.4091H337.352L330.398 110ZM331.489 100.909H343.398V103.409H331.489V100.909Z" fill="#D9D9D9"/>
</g>
<defs>
<filter id="filter0_d_101_3" x="0.720169" y="0.227264" width="481.378" height="118.091" filterUnits="userSpaceOnUse" color-interpolation-filters="sRGB">
<feFlood flood-opacity="0" result="BackgroundImageFix"/>
<feColorMatrix in="SourceAlpha" type="matrix" values="0 0 0 0 0 0 0 0 0 0 0 0 0 0 0 0 0 0 127 0" result="hardAlpha"/>
<feOffset dy="4"/>
<feGaussianBlur stdDeviation="2"/>
<feComposite in2="hardAlpha" operator="out"/>
<feColorMatrix type="matrix" values="0 0 0 0 0 0 0 0 0 0 0 0 0 0 0 0 0 0 0.25 0"/>
<feBlend mode="normal" in2="BackgroundImageFix" result="effect1_dropShadow_101_3"/>
<feBlend mode="normal" in="SourceGraphic" in2="effect1_dropShadow_101_3" result="shape"/>
</filter>
</defs>
</svg>
